<svg xmlns="http://www.w3.org/2000/svg" width="20.002" height="20" viewBox="0 0 20.002 20">
  <g id="awards" transform="translate(-4355 3567)">
    <g id="icons8_giveaway" transform="translate(4353 -3568.999)">
      <path id="Path_47209" data-name="Path 47209" d="M19.868,2.884a1.5,1.5,0,0,0-1.983-.752L16.5,2.755l-1.385-.623a1.5,1.5,0,1,0-1.23,2.735L14.172,5,14,12h5l-.171-7,.287-.129A1.5,1.5,0,0,0,19.868,2.884Z" fill="#f47321" opacity="0.35"/>
      <path id="Path_47210" data-name="Path 47210" d="M14.17,5l.83.37V12H13a2.006,2.006,0,0,1-2-2V7a2.006,2.006,0,0,1,2-2Z" fill="#f47321"/>
      <path id="Path_47211" data-name="Path 47211" d="M22,7v3a2.006,2.006,0,0,1-2,2H18V5.37L18.83,5H20A2.006,2.006,0,0,1,22,7Z" fill="#f47321"/>
      <path id="Path_47212" data-name="Path 47212" d="M2,19.93v-5.8A1.474,1.474,0,0,1,3.133,12.7l2.3-.545a5.634,5.634,0,0,1,3.527.309l4.379,1.888a2.7,2.7,0,0,1,1.386,3.6h0l.373.489,4.653-1.661a1.666,1.666,0,0,1,2.16,1.034h0a1.666,1.666,0,0,1-.835,2.016l-4.623,2.328a3.887,3.887,0,0,1-2.964.211l-6.14-2.047a4.3,4.3,0,0,0-2.7-.008l-1.472.481A.9.9,0,0,1,2,19.93Z" transform="translate(0 -0.564)" fill="#f47321" opacity="0.35"/>
    </g>
  </g>
</svg>
