<svg xmlns="http://www.w3.org/2000/svg" width="36" height="36" viewBox="0 0 36 36">
  <g id="suitcase" transform="translate(-304 -560)">
    <rect id="Rectangle_11213" data-name="Rectangle 11213" width="36" height="36" rx="18" transform="translate(304 560)" fill="#22a99b" opacity="0.1"/>
    <g id="Group_8108" data-name="Group 8108" transform="translate(71 -159)">
      <path id="Path_47290" data-name="Path 47290" d="M-2991,304h-14a3,3,0,0,1-3-3v-5.887a3.029,3.029,0,0,0,3,2.889h14a3.009,3.009,0,0,0,3-2.971c0-.007,0-.015,0-.022V301A3,3,0,0,1-2991,304Z" transform="translate(3249 442)" fill="#22a99b"/>
      <path id="Path_47289" data-name="Path 47289" d="M-3004.458,298H-3005a3,3,0,0,1-3-3v-5a3,3,0,0,1,3-3h14a3,3,0,0,1,3,3v5a3,3,0,0,1-3,3h-13.458Z" transform="translate(3249 442)" fill="#22a99b" opacity="0.35"/>
      <path id="Path_47283" data-name="Path 47283" d="M13,2H11A2,2,0,0,0,9,4h6A2,2,0,0,0,13,2Z" transform="translate(239 725)" fill="#22a99b"/>
      <circle id="Ellipse_27" data-name="Ellipse 27" cx="1" cy="1" r="1" transform="translate(243 736)" fill="#22a99b"/>
    </g>
  </g>
</svg>
