<svg xmlns="http://www.w3.org/2000/svg" width="22" height="18" viewBox="0 0 22 18">
  <g id="trainingprograms" transform="translate(-4772 3543)">
    <g id="icons8_schoolboy_at_a_desk" transform="translate(4771 -3546)">
      <path id="Path_47226" data-name="Path 47226" d="M22,21H2a1,1,0,0,1-1-1V18a1,1,0,0,1,1-1H22a1,1,0,0,1,1,1v2A1,1,0,0,1,22,21Z" fill="#f47321" opacity="0.35"/>
      <circle id="Ellipse_24" data-name="Ellipse 24" cx="4" cy="4" r="4" transform="translate(8 3)" fill="#f47321" opacity="0.35"/>
      <path id="Path_47227" data-name="Path 47227" d="M8,13a3,3,0,0,0-3,3v1h7L8,13Z" fill="#f47321"/>
      <path id="Path_47228" data-name="Path 47228" d="M16,13h0l-4,4h7V16A3,3,0,0,0,16,13Z" fill="#f47321"/>
      <path id="Path_47229" data-name="Path 47229" d="M8,13l4,4,4-4Z" fill="#f47321" opacity="0.35"/>
    </g>
  </g>
</svg>
