<svg xmlns="http://www.w3.org/2000/svg" width="36" height="36" viewBox="0 0 36 36">
  <g id="graduated" transform="translate(-304 -560)">
    <rect id="Rectangle_11213" data-name="Rectangle 11213" width="36" height="36" rx="18" transform="translate(304 560)" fill="#22a99b" opacity="0.1"/>
    <g id="icons8_graduation_cap" transform="translate(310.007 566.978)">
      <path id="Path_47294" data-name="Path 47294" d="M13.572,16.532a3,3,0,0,1-3.145,0L4,12.577V18a3,3,0,0,0,3,3H17a3,3,0,0,0,3-3V12.577Z" fill="#22a99b"/>
      <path id="Path_47295" data-name="Path 47295" d="M10.428,2.468,2.039,7.63a2.2,2.2,0,0,0,0,3.741l8.388,5.162a3,3,0,0,0,3.145,0l8.388-5.162a2.2,2.2,0,0,0,0-3.741L13.572,2.468A3,3,0,0,0,10.428,2.468Z" fill="#22a99b" opacity="0.35"/>
      <ellipse id="Ellipse_29" data-name="Ellipse 29" cx="2" cy="1.5" rx="2" ry="1.5" transform="translate(10 7)" fill="#22a99b"/>
      <path id="Path_47296" data-name="Path 47296" d="M12.53,9.348l6.064-3.79a1.584,1.584,0,0,0-1.9-1.17L11.47,7.652Z" fill="#22a99b"/>
    </g>
  </g>
</svg>
