<svg xmlns="http://www.w3.org/2000/svg" width="20" height="20" viewBox="0 0 20 20">
  <g id="home" transform="translate(-4355 3696)">
    <g id="icons8_home_page" transform="translate(4352.999 -3697.994)">
      <path id="Path_47219" data-name="Path 47219" d="M18,21.994H6a3.083,3.083,0,0,1-3-3.161V9.1A3.191,3.191,0,0,1,4.543,6.342l6-3.511a2.869,2.869,0,0,1,2.914,0l6,3.511A3.192,3.192,0,0,1,21,9.1v9.73A3.083,3.083,0,0,1,18,21.994Z" fill="#f47321" opacity="0.35"/>
      <path id="Path_47220" data-name="Path 47220" d="M15,21H9V15a2,2,0,0,1,2-2h2a2,2,0,0,1,2,2Z" transform="translate(0 0.994)" fill="#f47321"/>
      <path id="Path_47221" data-name="Path 47221" d="M20.5,9.23a1.494,1.494,0,0,1-.727-.189l-6.839-3.8a1.909,1.909,0,0,0-1.864,0L4.23,9.041A1.5,1.5,0,0,1,2.773,6.418l6.839-3.8a4.888,4.888,0,0,1,4.778,0l6.839,3.8A1.5,1.5,0,0,1,20.5,9.23Z" fill="#f47321"/>
    </g>
  </g>
</svg>
