<svg xmlns="http://www.w3.org/2000/svg" width="16" height="22" viewBox="0 0 16 22">
  <g id="honorbord" transform="translate(-5326 -1)">
    <g id="icons8_prize" transform="translate(5326 1)">
      <path id="Path_47307" data-name="Path 47307" d="M19.742,8.243,19.371,7.9a1.221,1.221,0,0,1-.329-1.28l.16-.481a1.222,1.222,0,0,0-.89-1.576l-.495-.114a1.226,1.226,0,0,1-.926-.944l-.1-.495a1.229,1.229,0,0,0-1.562-.922l-.485.148a1.231,1.231,0,0,1-1.276-.356L13.126,1.5a1.231,1.231,0,0,0-1.815-.02l-.346.37a1.231,1.231,0,0,1-1.284.328L9.2,2.018a1.227,1.227,0,0,0-1.582.887L7.5,3.4a1.227,1.227,0,0,1-.948.923l-.5.1a1.224,1.224,0,0,0-.925,1.556l.149.484a1.221,1.221,0,0,1-.357,1.272l-.379.337a1.221,1.221,0,0,0-.02,1.809l.371.345a1.221,1.221,0,0,1,.329,1.28l-.16.481a1.222,1.222,0,0,0,.89,1.576l.495.114a1.227,1.227,0,0,1,.926.944l.1.495a1.229,1.229,0,0,0,1.562.922l.485-.148a1.231,1.231,0,0,1,1.276.356l.338.378a1.231,1.231,0,0,0,1.815.02l.346-.37a1.231,1.231,0,0,1,1.284-.328l.482.159a1.227,1.227,0,0,0,1.582-.887l.114-.493a1.227,1.227,0,0,1,.948-.923l.5-.1a1.224,1.224,0,0,0,.925-1.556l-.149-.484a1.221,1.221,0,0,1,.357-1.272l.379-.337A1.222,1.222,0,0,0,19.742,8.243ZM12.033,14.1a5.04,5.04,0,1,1,5.114-4.983A5.049,5.049,0,0,1,12.033,14.1Z" transform="translate(-4.133 -1.091)" fill="#f47321"/>
      <ellipse id="Ellipse_30" data-name="Ellipse 30" cx="5.09" cy="5" rx="5.09" ry="5" transform="translate(2.867 2.909)" fill="#f47321" opacity="0.35"/>
      <path id="Path_47308" data-name="Path 47308" d="M16.726,12.051a5.118,5.118,0,0,1-9.318-.1l-.338,0-.113,9.919a1.019,1.019,0,0,0,1.645.8l1.541-1.184a3.1,3.1,0,0,1,3.815.042l1.513,1.217a1.019,1.019,0,0,0,1.662-.763l.113-9.919Z" transform="translate(-4.133 -0.965)" fill="#f47321" opacity="0.35"/>
    </g>
  </g>
</svg>
