<svg xmlns="http://www.w3.org/2000/svg" width="18.002" height="24" viewBox="0 0 18.002 24">
  <g id="people" transform="translate(-248 -575)">
    <path id="icons8_arms_up" d="M6.338,2.007A1.2,1.2,0,0,0,5.047,3.535,9.607,9.607,0,0,0,9.8,9.357V24.8a1.2,1.2,0,0,0,2.4,0v-6h3.6v6a1.2,1.2,0,0,0,2.4,0V9.366a9.535,9.535,0,0,0,4.755-5.838,1.2,1.2,0,0,0-2.311-.656A7,7,0,0,1,14.532,8h-.183a7.036,7.036,0,0,1-7-5.135A1.2,1.2,0,0,0,6.338,2.007Zm7.7.021a2.375,2.375,0,1,0,2.4,2.376A2.389,2.389,0,0,0,14.035,2.028Z" transform="translate(243.001 573.001)" fill="#22a99b"/>
  </g>
</svg>
