<svg version="1.2" xmlns="http://www.w3.org/2000/svg" viewBox="0 0 420 377" width="50" height="45">
	<title>users_icon-svg</title>
	<style>
		tspan { white-space:pre } 
		.t0 { font-size: 20px;fill: #ffff00;font-weight: bold;font-family: "' Verdana" } 
		.t1 { font-size: 20px;fill: #ffff00;font-family: "' Verdana'" } 
		.s2 { fill: #020201 } 
		.s3 { fill: #000000 } 
	</style>
	<g id="Layer">
		<text id="simpleicon.com" style="transform: matrix(1,0,0,1,122.783,483.809)" >
			<tspan x="0" y="0" class="t0">simpleicon.com
</tspan>
		</text>
		<text id="Collection Of Flat Icon, Symbols And Glyph Icons" style="transform: matrix(1,0,0,1,-36.807,507.809)" >
			<tspan x="0" y="0" class="t1">Collection Of Flat Icon, Symbols And Glyph Icons
</tspan>
		</text>
	</g>
	<g id="Layer">
		<path id="Layer" class="s2" d="m55.6 268.5h-51.6c-0.2-8 1.2-22.2 4.5-32.4 3.3-9.8 9.2-19.7 17.9-25.5 16.8-11.1 36.4-16.7 55.3-23.1 4.6-1.6 9.2-3.2 13.4-5.6 3.7-2.3 5.1-6.7 6-10.7q0.3-2.2 0.5-4.4c-14.5-18.5-24.3-50.4-24.3-76.4 0-39.2 22.2-50.1 49.5-50.1 10.2 0 19.7 1.5 27.6 5.5-18.2 13.9-27.9 36.8-27.9 67.6 0 36.3 12.8 78.7 31.6 106.1-0.3 1.1-0.6 1.7-0.7 2.1-3.8 2.1-8.4 3.7-13.2 5.4l-0.7 0.2q-4.8 1.6-9.8 3.2c-22.8 7.6-46.4 15.3-67.6 29.4-3.7 2.5-7.2 4.7-10.5 8.7z"/>
		<path id="Layer" class="s2" d="m416 268.5h-52c-3.2-4-6.5-5.8-10-8.1-21.8-14.5-46-22.4-69.4-30.2l-8-2.6c-5.2-1.9-10-3.6-13.9-5.8-0.3-0.6-0.7-1.7-1.1-3.8q-0.1-0.5-0.2-0.9c18-27.6 29.9-68.4 29.9-103.7 0-30.7-9.6-53.5-27.7-67.4 8-4.1 17.6-5.7 28-5.7 27.3 0 49.4 10.9 49.4 50.1 0 25.1-9.1 55.7-22.8 74.5q0.2 3.2 0.7 6.4c0.9 3.9 2.3 8.4 6 10.7 4.2 2.4 8.8 4.1 13.4 5.7 18.9 6.4 38.5 12.2 55.3 23.3 8.7 5.8 14.6 15.3 17.9 25.1 3.3 10.2 4.7 24.4 4.5 32.4z"/>
	</g>
	<path id="Layer" class="s3" d="m374.8 351.5h-164.8-164.8c-0.2-13 1.6-29.9 6.1-43.5 4.3-13.1 12.2-26.7 23.8-34.3 22.4-14.9 48.5-22.4 73.7-30.9 6.1-2.1 12.3-4.2 17.8-7.5 5-2.9 6.9-8.9 8-14.2 0.4-1.9 0.6-3.9 0.8-5.8-19.4-24.7-32.4-67.3-32.4-101.9 0-52.3 29.5-66.8 65.9-66.8 36.4 0 65.9 14.5 65.9 66.8 0 33.5-12.1 74.3-30.4 99.3 0.2 2.8 0.5 5.7 1 8.5 1.1 5.3 3 11.3 8 14.3 5.5 3.3 11.7 5.6 17.8 7.7 25.2 8.5 51.3 16.3 73.7 31.1 11.6 7.7 19.5 20.6 23.8 33.7 4.5 13.6 6.4 30.5 6.1 43.5z"/>
</svg>