<svg xmlns="http://www.w3.org/2000/svg" width="24" height="24" viewBox="0 0 24 24">
  <g id="done_green" transform="translate(-294 -120)">
    <rect id="Rectangle_11235" data-name="Rectangle 11235" width="24" height="24" rx="12" transform="translate(294 120)" fill="#22a99b"/>
    <g id="icons8_ok_1" transform="translate(290.414 115.609)" fill="#22a99b">
      <path d="M 14.20241928100586 19.89140510559082 C 14.12255954742432 19.89140510559082 14.04762935638428 19.85513496398926 13.98570919036865 19.7865161895752 L 11.21386909484863 16.71298599243164 L 11.21011924743652 16.70883560180664 L 11.20628929138184 16.70476531982422 C 11.10383892059326 16.59615516662598 11.06179904937744 16.42291641235352 11.09918880462646 16.2634162902832 C 11.13375949859619 16.11596488952637 11.22853946685791 16.00323486328125 11.34653949737549 15.96922588348389 C 11.36984920501709 15.96250534057617 11.39364910125732 15.95909595489502 11.41725921630859 15.95909595489502 C 11.49876880645752 15.95909595489502 11.57777881622314 15.99867534637451 11.63973903656006 16.07052612304688 L 11.64337921142578 16.07474517822266 L 11.64710903167725 16.07887649536133 L 13.83110904693604 18.50052642822266 L 14.20240879058838 18.91223526000977 L 14.57370948791504 18.50052642822266 L 19.52964019775391 13.00524520874023 L 19.53189849853516 13.00274562835693 L 19.53411865234375 13.00021553039551 C 19.59343910217285 12.93263530731201 19.66876983642578 12.89403533935547 19.74623870849609 12.89152526855469 L 19.75405883789062 12.89140605926514 C 19.87955856323242 12.89140605926514 19.99676895141602 12.98600578308105 20.05266952514648 13.13240528106689 C 20.117919921875 13.30330562591553 20.08281898498535 13.509765625 19.96731948852539 13.63450527191162 L 19.96507835388184 13.63691520690918 L 19.9628791809082 13.63935565948486 L 14.41902923583984 19.7866153717041 C 14.35719966888428 19.85513496398926 14.28226947784424 19.89140510559082 14.20241928100586 19.89140510559082 Z" stroke="none"/>
      <path d="M 19.75406265258789 12.39140319824219 C 20.08718872070312 12.39142799377441 20.38930892944336 12.61232948303223 20.51977920532227 12.95406532287598 C 20.65340042114258 13.30403518676758 20.57971954345703 13.70905494689941 20.33419036865234 13.97421646118164 L 14.79033851623535 20.12147521972656 C 14.46559143066406 20.48138427734375 13.93924331665039 20.48138809204102 13.61448860168457 20.12147521972656 L 10.84255981445312 17.0478458404541 C 10.62458992004395 16.8167552947998 10.53652000427246 16.47293472290039 10.61238861083984 16.14929580688477 C 10.68825912475586 15.82565498352051 10.91618919372559 15.57291603088379 11.20805931091309 15.48878479003906 C 11.49992942810059 15.4046573638916 11.80999946594238 15.50231742858887 12.01840972900391 15.74401473999023 L 14.2024097442627 18.16566467285156 L 19.15834045410156 12.67038536071777 C 19.30902862548828 12.49870491027832 19.51405906677246 12.39879608154297 19.73001861572266 12.39178657531738 C 19.73806953430176 12.39152908325195 19.74604797363281 12.39140129089355 19.75406265258789 12.39140319824219 Z" stroke="none" fill="#fff"/>
    </g>
  </g>
</svg>
