<svg xmlns="http://www.w3.org/2000/svg" width="32" height="28" viewBox="0 0 32 28">
  <g id="exchange" transform="translate(-295 -132)">
    <g id="icons8_data_transfer" transform="translate(293 128.987)">
      <path id="Path_47329" data-name="Path 47329" d="M33.539,8.109,28.713,3.326a1.077,1.077,0,0,0-1.833.765V6.1H5.11A3.11,3.11,0,0,0,2,9.215H2a3.11,3.11,0,0,0,3.11,3.111H26.879v2.013a1.075,1.075,0,0,0,1.832.764l4.827-4.783A1.555,1.555,0,0,0,33.539,8.109Z" transform="translate(0)" fill="#cb7fe6" opacity="0.35"/>
      <path id="Path_47330" data-name="Path 47330" d="M2.46,20.319,7.287,25.1a1.075,1.075,0,0,0,1.832-.764V22.326H30.888A3.11,3.11,0,0,0,34,19.215h0a3.11,3.11,0,0,0-3.11-3.111H9.119V14.091a1.075,1.075,0,0,0-1.832-.764L2.46,18.111A1.554,1.554,0,0,0,2.46,20.319Z" transform="translate(0 5.596)" fill="#cb7fe6"/>
    </g>
  </g>
</svg>
