<svg xmlns="http://www.w3.org/2000/svg" width="32" height="32" viewBox="0 0 32 32">
  <g id="flash_sales" transform="translate(-2.342 -1.988)">
    <path id="Path_47327" data-name="Path 47327" d="M12.98,5.042a6.233,6.233,0,0,1,10.723,0,6.092,6.092,0,0,1,5.952,1.632,6.09,6.09,0,0,1,1.632,5.952,6.233,6.233,0,0,1,0,10.723A6.235,6.235,0,0,1,23.7,30.934a6.233,6.233,0,0,1-10.723,0A6.091,6.091,0,0,1,7.028,29.3,6.091,6.091,0,0,1,5.4,23.35a6.233,6.233,0,0,1,0-10.723A6.092,6.092,0,0,1,7.028,6.674,6.1,6.1,0,0,1,12.98,5.042Z" transform="translate(0 0)" fill="#f47321" fill-rule="evenodd" opacity="0.35"/>
    <path id="Path_47328" data-name="Path 47328" d="M9.6,23A1.6,1.6,0,0,1,8.32,20.441l9.6-12.8a1.6,1.6,0,0,1,2.558,1.918l-9.6,12.8A1.59,1.59,0,0,1,9.6,23Z" transform="translate(3.395 3.008)" fill="#f47321"/>
    <circle id="Ellipse_45" data-name="Ellipse 45" cx="2.4" cy="2.4" r="2.4" transform="translate(20.995 19.607)" fill="#f47321"/>
    <circle id="Ellipse_46" data-name="Ellipse 46" cx="2.4" cy="2.4" r="2.4" transform="translate(9.795 11.607)" fill="#f47321"/>
  </g>
</svg>
