<svg xmlns="http://www.w3.org/2000/svg" width="20" height="16" viewBox="0 0 20 16">
  <g id="giftcard" transform="translate(-5239 3594)">
    <g id="icons8_gift_card" transform="translate(5237 -3597)">
      <path id="Path_47279" data-name="Path 47279" d="M5,19H19a3,3,0,0,0,3-3V6a3,3,0,0,0-3-3H5A3,3,0,0,0,2,6V16A3,3,0,0,0,5,19Z" fill="#f47321" opacity="0.35"/>
      <path id="Path_47280" data-name="Path 47280" d="M11.471,12H22V10H15.586A3.031,3.031,0,0,0,16,8.5,3.28,3.28,0,0,0,12.5,5,2.967,2.967,0,0,0,10,6.33,2.967,2.967,0,0,0,7.5,5,3.28,3.28,0,0,0,4,8.5,3.021,3.021,0,0,0,4.417,10H2v2H7.977a3.876,3.876,0,0,0,.316,4.707A.979.979,0,0,0,8.988,17a1,1,0,0,0,.732-1.689,1.8,1.8,0,0,1-.2-1.9A5.05,5.05,0,0,0,14,16a1,1,0,0,0,.005-2,2.912,2.912,0,0,1-2.877-2l.066,0ZM12.5,7A1.326,1.326,0,0,1,14,8.5c0,.812-.973,1.5-2.125,1.5H11c0-.068,0-.151,0-.251C11,8.888,11.378,7,12.5,7ZM8.125,10C6.973,10,6,9.312,6,8.5A1.326,1.326,0,0,1,7.5,7C8.622,7,9,8.888,9,9.749c0,.1,0,.183,0,.251H8.125Z" fill="#f47321"/>
    </g>
  </g>
</svg>
