<svg xmlns="http://www.w3.org/2000/svg" width="20" height="18" viewBox="0 0 20 18">
  <g id="like_orange" transform="translate(-184 -633)">
    <path id="icons8_facebook_like" d="M11.678,2.181a1.006,1.006,0,0,0-.9.756l-.555,2.338L7.514,8.156A1.864,1.864,0,0,0,7,9.436v8.829a1.957,1.957,0,0,0,2,1.913h8.031a1.88,1.88,0,0,0,1.713-1.065l3-6.461A2.688,2.688,0,0,0,22,11.515v-.9A1.964,1.964,0,0,0,20,8.7H13a12.287,12.287,0,0,0,1-3.956,2.545,2.545,0,0,0-1.893-2.512A1.033,1.033,0,0,0,11.678,2.181ZM3.5,8.7A1.469,1.469,0,0,0,2,10.136v8.607a1.469,1.469,0,0,0,1.5,1.434A1.469,1.469,0,0,0,5,18.743V10.136A1.469,1.469,0,0,0,3.5,8.7Z" transform="translate(182 630.823)" fill="#f47321"/>
  </g>
</svg>
