<svg xmlns="http://www.w3.org/2000/svg" width="24" height="24" viewBox="0 0 24 24">
  <g id="Group_7670" data-name="Group 7670" transform="translate(-1938 -107)">
    <rect id="Rectangle_11183" data-name="Rectangle 11183" width="24" height="24" transform="translate(1938 107)" fill="#ff4b4b" opacity="0"/>
    <path id="icons8_youtube_live" d="M4.225,4.225a10.987,10.987,0,0,0,0,15.551l1.414-1.414a8.987,8.987,0,0,1,0-12.723Zm15.551,0L18.361,5.639a8.987,8.987,0,0,1,0,12.723l1.414,1.414a10.987,10.987,0,0,0,0-15.551ZM7.053,7.053a6.988,6.988,0,0,0,0,9.895l1.414-1.414a4.989,4.989,0,0,1,0-7.066Zm9.895,0L15.533,8.467a4.989,4.989,0,0,1,0,7.066l1.414,1.414a6.988,6.988,0,0,0,0-9.895ZM12,9a3,3,0,1,0,3,3A3,3,0,0,0,12,9Z" transform="translate(1938 106.775)" fill="#ff4b4b"/>
  </g>
</svg>
