<svg xmlns="http://www.w3.org/2000/svg" width="18" height="20" viewBox="0 0 18 20">
  <g id="logout" transform="translate(-4774 3314)">
    <g id="icons8_Logout" transform="translate(4770 -3316)">
      <path id="Path_47250" data-name="Path 47250" d="M20.172,5V19a3.016,3.016,0,0,1-3.032,3H7.032A3.016,3.016,0,0,1,4,19V5A3.016,3.016,0,0,1,7.032,2H17.14A3.016,3.016,0,0,1,20.172,5Z" fill="#ff4b4b" opacity="0.35"/>
      <path id="Path_47251" data-name="Path 47251" d="M18,10H11a2,2,0,0,0,0,4h7Z" transform="translate(-0.172)" fill="#ff4b4b"/>
      <path id="Path_47252" data-name="Path 47252" d="M16.579,16.131a.867.867,0,0,0,1.478.616l3.893-3.856a1.255,1.255,0,0,0,0-1.782L18.057,7.253a.868.868,0,0,0-1.478.616Z" transform="translate(-0.321)" fill="#ff4b4b"/>
    </g>
  </g>
</svg>
