<svg id="manage_account" xmlns="http://www.w3.org/2000/svg" width="24" height="24" viewBox="0 0 24 24">
  <g id="Group_8488" data-name="Group 8488">
    <path id="Path_47398" data-name="Path 47398" d="M0,0H24V24H0Z" fill="none"/>
  </g>
  <g id="Group_8490" data-name="Group 8490">
    <g id="Group_8489" data-name="Group 8489">
      <path id="Path_47399" data-name="Path 47399" d="M10.67,13.02c-.22-.01-.44-.02-.67-.02a12.876,12.876,0,0,0-6.61,1.82A2.922,2.922,0,0,0,2,17.35V19a1,1,0,0,0,1,1h8.26A6.963,6.963,0,0,1,10,16,7.072,7.072,0,0,1,10.67,13.02Z" fill="#22a99b"/>
      <circle id="Ellipse_53" data-name="Ellipse 53" cx="4" cy="4" r="4" transform="translate(6 4)" fill="#22a99b"/>
      <path id="Path_47400" data-name="Path 47400" d="M20.75,16a4.338,4.338,0,0,0-.06-.63l.84-.73a.5.5,0,0,0,.1-.63l-.59-1.02a.488.488,0,0,0-.59-.22l-1.06.36a3.647,3.647,0,0,0-1.08-.63l-.22-1.09a.5.5,0,0,0-.49-.4H16.42a.5.5,0,0,0-.49.4l-.22,1.09a3.647,3.647,0,0,0-1.08.63l-1.06-.36a.5.5,0,0,0-.59.22l-.59,1.02a.5.5,0,0,0,.1.63l.84.73a4.338,4.338,0,0,0-.06.63,4.338,4.338,0,0,0,.06.63l-.84.73a.5.5,0,0,0-.1.63l.59,1.02a.488.488,0,0,0,.59.22l1.06-.36a3.647,3.647,0,0,0,1.08.63l.22,1.09a.5.5,0,0,0,.49.4H17.6a.5.5,0,0,0,.49-.4l.22-1.09a3.647,3.647,0,0,0,1.08-.63l1.06.36a.5.5,0,0,0,.59-.22l.59-1.02a.5.5,0,0,0-.1-.63l-.84-.73A4.338,4.338,0,0,0,20.75,16ZM17,18a2,2,0,1,1,2-2A2.006,2.006,0,0,1,17,18Z" fill="#22a99b"/>
    </g>
  </g>
</svg>
