<svg xmlns="http://www.w3.org/2000/svg" width="22" height="21.999" viewBox="0 0 22 21.999">
  <g id="marketplacec" transform="translate(-4354 3605)">
    <g id="icons8_market_square" transform="translate(4352.5 -3606)">
      <path id="Path_47222" data-name="Path 47222" d="M17.858,4H16.635A4.233,4.233,0,0,0,12.5,1,4.233,4.233,0,0,0,8.365,4H7.143A2.075,2.075,0,0,0,5,6v9a3.113,3.113,0,0,0,3.214,3h8.572A3.113,3.113,0,0,0,20,15V6A2.075,2.075,0,0,0,17.858,4ZM12.5,3a2.167,2.167,0,0,1,1.846,1H10.655A2.164,2.164,0,0,1,12.5,3Z" transform="translate(0)" fill="#f47321" opacity="0.35"/>
      <circle id="Ellipse_22" data-name="Ellipse 22" cx="1" cy="1" r="1" transform="translate(14.658 7)" fill="#f47321"/>
      <circle id="Ellipse_23" data-name="Ellipse 23" cx="1" cy="1" r="1" transform="translate(8.342 7)" fill="#f47321"/>
      <path id="Path_47223" data-name="Path 47223" d="M22.645,14.469l-2.811-1.707V15a3.074,3.074,0,0,1-3.143,3H8.31a3.074,3.074,0,0,1-3.143-3V12.762L2.356,14.469a1.722,1.722,0,0,0,0,2.976l8.3,5.042a3.575,3.575,0,0,0,3.688,0l8.3-5.042A1.722,1.722,0,0,0,22.645,14.469Z" transform="translate(0)" fill="#f47321"/>
    </g>
  </g>
</svg>
