<svg xmlns="http://www.w3.org/2000/svg" width="32" height="20" viewBox="0 0 32 20">
  <g id="master" transform="translate(3147 1232)">
    <g id="mastercard-2_1_" data-name="mastercard-2 (1)" transform="translate(-3147 -1231.999)">
      <path id="Path_47383" data-name="Path 47383" d="M738.363,147.874H729.71V132.15h8.653Z" transform="translate(-718.036 -130.013)" fill="#ff5f00"/>
      <path id="Path_47384" data-name="Path 47384" d="M12.222,10A10.024,10.024,0,0,1,16,2.137,9.777,9.777,0,0,0,9.888,0,9.944,9.944,0,0,0,0,10,9.944,9.944,0,0,0,9.888,20,9.777,9.777,0,0,0,16,17.861,10.024,10.024,0,0,1,12.222,10" transform="translate(0 0)" fill="#eb001b"/>
      <path id="Path_47385" data-name="Path 47385" d="M1016.11,10a9.944,9.944,0,0,1-9.888,10,9.78,9.78,0,0,1-6.112-2.138,10.07,10.07,0,0,0,0-15.724A9.78,9.78,0,0,1,1006.222,0a9.945,9.945,0,0,1,9.888,10" transform="translate(-984.11 0)" fill="#f79e1b"/>
    </g>
  </g>
</svg>
