<svg xmlns="http://www.w3.org/2000/svg" width="62" height="20" viewBox="0 0 62 20">
  <g id="visa" transform="translate(3276 1232)">
    <g id="visa-2" data-name="visa" transform="translate(-3287.226 -1283.519)">
      <g id="Group_8325" data-name="Group 8325" transform="translate(11.226 51.519)">
        <path id="Path_47378" data-name="Path 47378" d="M38.1,71.186H33.045l3.162-19.321h5.06ZM28.789,51.864,23.965,65.154l-.571-2.862h0l-1.7-8.689a2.161,2.161,0,0,0-2.4-1.74H11.32l-.094.327A18.989,18.989,0,0,1,16.518,54.4l4.4,16.786h5.271l8.049-19.322ZM68.581,71.186h4.645l-4.05-19.322H65.109a2.323,2.323,0,0,0-2.335,1.44L55.228,71.186H60.5l1.055-2.87h6.431l.593,2.87Zm-5.567-6.835,2.658-7.231,1.5,7.231Zm-7.39-7.84.722-4.149a14.675,14.675,0,0,0-4.55-.842c-2.511,0-8.472,1.091-8.472,6.4,0,4.992,7,5.054,7,7.676s-6.276,2.152-8.348.5l-.752,4.338a14.245,14.245,0,0,0,5.71,1.091c3.452,0,8.661-1.777,8.661-6.615,0-5.024-7.06-5.491-7.06-7.676s4.928-1.9,7.092-.718Z" transform="translate(-11.226 -51.519)" fill="#2566af"/>
      </g>
      <path id="Path_47379" data-name="Path 47379" d="M23.4,62.615l-1.7-8.689a2.161,2.161,0,0,0-2.4-1.74H11.32l-.094.327a19.652,19.652,0,0,1,7.508,3.749A15.063,15.063,0,0,1,23.4,62.615Z" transform="translate(0 -0.322)" fill="#e6a540"/>
    </g>
  </g>
</svg>
