<svg xmlns="http://www.w3.org/2000/svg" width="63" height="18" viewBox="0 0 63 18">
  <g id="fawry" transform="translate(-100.8 -267.8)">
    <path id="Path_47370" data-name="Path 47370" d="M569.681,339.619c.161-.517.3-1.035.459-1.575.2-.68.383-1.344.589-2.015a.79.79,0,0,1,.872-.664h1.025a.76.76,0,0,1,.826.618c.329,1.1.643,2.208.956,3.305a.975.975,0,0,0,.145.317c.053-.17.1-.332.161-.5.283-.981.574-1.977.872-2.958a.937.937,0,0,1,1.041-.8h1.1c.314,0,.444.147.375.448-.1.386-.23.78-.344,1.151-.558,1.761-1.132,3.537-1.683,5.29a.915.915,0,0,1-.941.695h-.811a.9.9,0,0,1-.941-.695c-.383-1.251-.788-2.51-1.171-3.761-.015-.07-.046-.131-.084-.263-.046.116-.053.17-.084.232-.4,1.251-.788,2.525-1.186,3.776a.9.9,0,0,1-.956.695h-.842a.884.884,0,0,1-.9-.664c-.612-1.915-1.217-3.822-1.829-5.737-.054-.2-.13-.386-.184-.595a1.027,1.027,0,0,1-.046-.3.265.265,0,0,1,.3-.3c.459,0,.9-.015,1.354,0a.89.89,0,0,1,.842.664c.329,1.127.658,2.247,1,3.375a1.954,1.954,0,0,1,.054.2C569.643,339.619,569.658,339.619,569.681,339.619Z" transform="translate(-429.7 -62.298)" fill="#006e9c"/>
    <path id="Path_47371" data-name="Path 47371" d="M461.469,341.221c-.115.069-.214.131-.314.185a4.018,4.018,0,0,1-2.341.564,4.208,4.208,0,0,1-1.561-.347,2.2,2.2,0,0,1-1.37-2.124,2.179,2.179,0,0,1,1.5-2.093,4.156,4.156,0,0,1,1.568-.286h2.112c.184,0,.23-.054.214-.232-.1-.88-.459-1.228-1.347-1.228a2.086,2.086,0,0,0-1.018.216,1.759,1.759,0,0,0-.329.263.993.993,0,0,1-.788.363h-.9c-.36,0-.513-.185-.482-.548a1.658,1.658,0,0,1,1.056-1.459,5.243,5.243,0,0,1,1.614-.378,6.992,6.992,0,0,1,2.3.116,2.684,2.684,0,0,1,1.9,1.413,2.985,2.985,0,0,1,.3,1.359v4.34c0,.347-.145.479-.474.479H462c-.375,0-.5-.116-.513-.5C461.484,341.306,461.484,341.275,461.469,341.221Zm-1.354-2.525c-.344.015-.7,0-1.041.015a.864.864,0,0,0-.788.5.807.807,0,0,0,.612,1.143,3.184,3.184,0,0,0,2.318-.533.24.24,0,0,0,.069-.185c.015-.247,0-.5,0-.749,0-.147-.054-.185-.184-.185C460.765,338.7,460.444,338.7,460.115,338.7Z" transform="translate(-327.915 -61.159)" fill="#006e9c"/>
    <path id="Path_47372" data-name="Path 47372" d="M819.466,343.312c-.23-.031-.428-.046-.612-.085a2.5,2.5,0,0,1-1.561-.965,6.033,6.033,0,0,1-.926-1.907c-.375-1.2-.727-2.394-1.071-3.591-.084-.286.046-.463.344-.463h1.3a.645.645,0,0,1,.673.517c.329,1.066.643,2.131.972,3.2a3.5,3.5,0,0,0,.589,1.212,1.013,1.013,0,0,0,.589.378c.145.031.214,0,.26-.162.383-1.413.773-2.826,1.155-4.239.046-.147.084-.3.13-.448a.59.59,0,0,1,.612-.463h1.285c.329,0,.459.17.375.479-.612,2.247-1.216,4.517-1.844,6.764a8.536,8.536,0,0,1-.612,1.5,2.317,2.317,0,0,1-2.2,1.328,14.11,14.11,0,0,1-1.8-.147.436.436,0,0,1-.428-.5v-.68a.4.4,0,0,1,.428-.432c.283.015.589.046.872.085a1.059,1.059,0,0,0,1.041-.363A3.005,3.005,0,0,0,819.466,343.312Z" transform="translate(-659.807 -63.21)" fill="#006e9c"/>
    <path id="Path_47373" data-name="Path 47373" d="M380.523,310.133c0-1.1-.031-2.178.015-3.274a5.047,5.047,0,0,1,.245-1.3,2.285,2.285,0,0,1,1.8-1.514,8.415,8.415,0,0,1,2.816-.131,5.265,5.265,0,0,1,.712.1.461.461,0,0,1,.428.517v.633a.425.425,0,0,1-.474.463,3.611,3.611,0,0,1-.643-.054,3.821,3.821,0,0,0-1.7.07,1.083,1.083,0,0,0-.872,1.1c-.031.185-.031.386-.046.579-.015.17.046.232.23.232.7-.015,1.415,0,2.112,0,.375,0,.5.131.513.5v.695a.419.419,0,0,1-.474.463h-2.158c-.168,0-.23.054-.23.232v3.992c0,.4-.13.533-.528.533h-1.255c-.383,0-.513-.131-.513-.517C380.508,312.326,380.508,311.229,380.523,310.133Z" transform="translate(-258.3 -33.275)" fill="#006e9c"/>
    <path id="Path_47374" data-name="Path 47374" d="M738.118,335.3c.214-.147.375-.263.528-.363a4.3,4.3,0,0,1,2.441-.633.4.4,0,0,1,.413.417c.015.347.015.71,0,1.05a.392.392,0,0,1-.428.417c-.314,0-.643,0-.956-.031a2.059,2.059,0,0,0-1.614.595,1.106,1.106,0,0,0-.4.934c.031,1.266.015,2.541.015,3.822,0,.4-.13.533-.543.533h-1.316a.414.414,0,0,1-.459-.463V334.91a.414.414,0,0,1,.459-.463h1.415a.412.412,0,0,1,.444.448Z" transform="translate(-586.416 -61.365)" fill="#006e9c"/>
    <path id="Path_47375" data-name="Path 47375" d="M118.634,276.8a8.949,8.949,0,0,1-8.913,9,8.8,8.8,0,0,1-6.075-2.425,9.006,9.006,0,0,1,6.067-15.575,8.713,8.713,0,0,1,3.03.533,8.82,8.82,0,0,1,3.244,2.077A9.028,9.028,0,0,1,118.634,276.8Z" fill="#ffd200"/>
    <path id="Path_47376" data-name="Path 47376" d="M148.022,369.531l-1.2-.6a13.719,13.719,0,0,1-5.631,5.367,8.813,8.813,0,0,1-3.389-2.008,6.071,6.071,0,0,0,3.389-1.846,12.42,12.42,0,0,0,2.686-3.359l-.941-.633a.469.469,0,0,1,.1-.834l4.116-1.444a.455.455,0,0,1,.612.386l.612,4.7A.238.238,0,0,1,148.022,369.531Z" transform="translate(-34.169 -88.905)" fill="#006e9c"/>
    <path id="Path_47377" data-name="Path 47377" d="M249.42,282.058a.266.266,0,0,1-.513-.054l-.268-1.583-2.028.633a.274.274,0,0,1-.329-.378,16.281,16.281,0,0,0,.972-2.78,5.078,5.078,0,0,0-.161-2.9,8.821,8.821,0,0,1,3.244,2.077A12.061,12.061,0,0,1,249.42,282.058Z" transform="translate(-134.328 -6.644)" fill="#006e9c"/>
  </g>
</svg>
