<svg xmlns="http://www.w3.org/2000/svg" width="60" height="20" viewBox="0 0 60 20">
  <g id="yalla" transform="translate(3229 1289)">
    <g id="Yalla-super-app-logo" transform="translate(-3228.999 -1289.069)">
      <path id="Path_47386" data-name="Path 47386" d="M245.913,46.856V42.995L241.7,36.447a1.771,1.771,0,0,1-.3-.979,1.366,1.366,0,0,1,1.451-1.368c.621,0,.959.235,1.338.9l3.159,5.229h.064L250.587,35a1.419,1.419,0,0,1,1.314-.9,1.354,1.354,0,0,1,1.426,1.344,1.832,1.832,0,0,1-.306,1l-4.215,6.556v3.861a1.448,1.448,0,1,1-2.893,0Z" transform="translate(-221.946 -31.276)" fill="#344da2"/>
      <path id="Path_47387" data-name="Path 47387" d="M377.2,85.284c0-1.878,1.435-2.962,4.005-3.116l2.587-.154v-.688c0-.963-.669-1.522-1.725-1.522a2.247,2.247,0,0,0-1.991,1.085,1.4,1.4,0,0,1-1.112.518A1.084,1.084,0,0,1,377.8,80.33a1.482,1.482,0,0,1,.145-.639c.476-1.23,2.128-1.991,4.255-1.991,2.635,0,4.352,1.368,4.352,3.448v5.884a1.282,1.282,0,0,1-1.362,1.416,1.245,1.245,0,0,1-1.346-1.255v-.526h-.056a3.537,3.537,0,0,1-3.143,1.74A3.171,3.171,0,0,1,377.2,85.284Zm6.592-.817v-.753l-2.168.138c-1.048.081-1.636.55-1.636,1.279,0,.769.637,1.255,1.572,1.255a2.06,2.06,0,0,0,2.232-1.918Z" transform="translate(-346.802 -71.347)" fill="#344da2"/>
      <path id="Path_47388" data-name="Path 47388" d="M516.3,46.645V35.273a1.4,1.4,0,1,1,2.8,0V46.645a1.4,1.4,0,1,1-2.8,0Z" transform="translate(-474.692 -31.001)" fill="#344da2"/>
      <path id="Path_47389" data-name="Path 47389" d="M575.4,46.645V35.273a1.4,1.4,0,1,1,2.8,0V46.645a1.4,1.4,0,1,1-2.8,0Z" transform="translate(-529.029 -31.001)" fill="#344da2"/>
      <path id="Path_47390" data-name="Path 47390" d="M628.5,85.284c0-1.878,1.435-2.962,4.005-3.116l2.587-.154v-.688c0-.963-.669-1.522-1.725-1.522a2.247,2.247,0,0,0-1.991,1.085,1.4,1.4,0,0,1-1.112.518A1.08,1.08,0,0,1,629.1,80.33a1.482,1.482,0,0,1,.145-.639c.484-1.23,2.128-1.991,4.255-1.991,2.635,0,4.352,1.368,4.352,3.448v5.884a1.282,1.282,0,0,1-1.362,1.416,1.245,1.245,0,0,1-1.346-1.255v-.526h-.056a3.537,3.537,0,0,1-3.143,1.74A3.175,3.175,0,0,1,628.5,85.284Zm6.6-.817v-.753l-2.168.138c-1.048.081-1.636.55-1.636,1.279,0,.769.629,1.255,1.572,1.255A2.06,2.06,0,0,0,635.1,84.466Z" transform="translate(-577.849 -71.347)" fill="#344da2"/>
      <path id="Path_47391" data-name="Path 47391" d="M15.9,7.542a2.476,2.476,0,0,0-.83-1.133l-.532-.316L12.258,4.774h0L9.107,2.945,4.892.509a3.259,3.259,0,0,0-4.457,1.2A3.36,3.36,0,0,0,0,3.35v1.7A2.468,2.468,0,0,1,.572,3.674a2.608,2.608,0,0,1,2.837-.688h0l.645.372h0L14.418,9.372,15,9.7l.048.024a.581.581,0,0,1,.145.17.317.317,0,0,1,.024.316A2.619,2.619,0,0,0,15.9,7.542Z" transform="translate(-0.001 0)" fill="#344da2"/>
      <path id="Path_47392" data-name="Path 47392" d="M2.876,48.078V34.643a.366.366,0,0,1,.056-.2.008.008,0,0,1,.008-.008.4.4,0,0,1,.33-.186h.016a.1.1,0,0,1,.048.008h.016l.024.008.024.008.008.008h0a2.6,2.6,0,0,0-2.837.688A2.389,2.389,0,0,0,0,36.334V48.078a3.262,3.262,0,0,0,1.628,2.841,3.227,3.227,0,0,0,3.264,0l1.281-.745a2.412,2.412,0,0,1-1.289.113A2.631,2.631,0,0,1,2.868,48.11Z" transform="translate(0 -31.293)" fill="#eb003b"/>
      <path id="Path_47393" data-name="Path 47393" d="M49.212,79.126,47.793,78.3a2.476,2.476,0,0,1,.83,1.133,2.651,2.651,0,0,1-.677,2.679.38.38,0,0,1-.137.162H47.8l-.016.016h0l-.008.008-.629.364L36.817,88.652l-.629.372a.37.37,0,0,1-.387,0,.379.379,0,0,1-.185-.243v-.016c0-.008-.008-.016-.008-.032H35.6a2.632,2.632,0,0,0,2.015,2.153,2.411,2.411,0,0,0,1.289-.113l.725-.421,2.345-1.36,2.877-1.667L49.2,84.8a3.282,3.282,0,0,0,0-5.674Z" transform="translate(-32.732 -71.899)" fill="#f79e3b"/>
      <path id="Path_47394" data-name="Path 47394" d="M11.1,207.3" transform="translate(-10.206 -190.458)" fill="#fff"/>
    </g>
  </g>
</svg>
