<svg xmlns="http://www.w3.org/2000/svg" width="24" height="22" viewBox="0 0 24 22">
  <g id="points" transform="translate(-296 -388)">
    <path id="icons8_multiple_stars_1" d="M15.086,2.68a.545.545,0,0,0-.5.316l-.628,1.3a.553.553,0,0,1-.417.311l-1.4.209a.572.572,0,0,0-.309.97L12.844,6.8a.579.579,0,0,1,.161.5L12.764,8.74a.559.559,0,0,0,.809.6l1.257-.676a.542.542,0,0,1,.517,0l1.257.676a.558.558,0,0,0,.807-.6l-.241-1.432a.578.578,0,0,1,.161-.5l1.015-1.014a.571.571,0,0,0-.307-.97l-1.4-.209a.56.56,0,0,1-.42-.311L15.586,3A.55.55,0,0,0,15.086,2.68Zm-6.459,7.1a1.082,1.082,0,0,0-1,.583L5.876,14l-3.922.583a1.121,1.121,0,0,0-.9.774,1.16,1.16,0,0,0,.28,1.168l2.839,2.829-.67,4a1.15,1.15,0,0,0,.441,1.114,1.089,1.089,0,0,0,1.172.087l3.507-1.886,3.509,1.886a1.089,1.089,0,0,0,.517.131,1.1,1.1,0,0,0,.657-.218,1.154,1.154,0,0,0,.441-1.114l-.67-4,2.837-2.829a1.158,1.158,0,0,0,.283-1.168,1.123,1.123,0,0,0-.9-.774L11.379,14,9.624,10.361A1.08,1.08,0,0,0,8.626,9.779Zm13.529,1.012a.451.451,0,0,0-.411.265l-.522,1.081a.464.464,0,0,1-.348.258l-1.168.174a.475.475,0,0,0-.256.805l.846.843a.48.48,0,0,1,.13.418l-.2,1.188a.464.464,0,0,0,.67.5l1.044-.563a.447.447,0,0,1,.428,0l1.044.563a.464.464,0,0,0,.67-.5l-.2-1.188a.479.479,0,0,1,.133-.418l.844-.843a.475.475,0,0,0-.257-.805l-1.167-.174a.46.46,0,0,1-.346-.258l-.522-1.081A.458.458,0,0,0,22.156,10.791Z" transform="translate(294.998 385.32)" fill="#f47321"/>
  </g>
</svg>
