<svg xmlns="http://www.w3.org/2000/svg" width="32" height="30" viewBox="0 0 32 30">
  <g id="advert" transform="translate(-300 -632)">
    <g id="icons8_commercial_1" transform="translate(298 630.001)">
      <path id="Path_364" data-name="Path 364" d="M6.571,7A4.536,4.536,0,0,0,2,11.5v6A4.536,4.536,0,0,0,6.571,22h6.1V7Z" transform="translate(0 2.5)" fill="#22a99b"/>
      <path id="Path_365" data-name="Path 365" d="M26.453,2.229a3.077,3.077,0,0,0-3.322.651C21.26,4.72,15.262,9.5,10.048,9.5A3.025,3.025,0,0,0,7,12.5v9a3.025,3.025,0,0,0,3.048,3c5.181,0,11.2,4.782,13.083,6.621A3.067,3.067,0,0,0,25.286,32a3.108,3.108,0,0,0,1.167-.228A3,3,0,0,0,28.333,29V5A3,3,0,0,0,26.453,2.229Z" transform="translate(2.619)" fill="#22a99b" opacity="0.35"/>
      <path id="Path_366" data-name="Path 366" d="M11.1,13H5S6.524,23.985,6.524,24.249a2.286,2.286,0,0,0,4.571,0Z" transform="translate(1.571 5.5)" fill="#22a99b"/>
      <path id="Path_367" data-name="Path 367" d="M21,9.184v8.449a4.452,4.452,0,0,0,0-8.449Z" transform="translate(9.952 3.592)" fill="#22a99b"/>
    </g>
  </g>
</svg>
