<svg xmlns="http://www.w3.org/2000/svg" width="32" height="24" viewBox="0 0 32 24">
  <g id="post" transform="translate(-292 -4)">
    <g id="icons8_postcard" transform="translate(292 4)">
      <g id="Group_7728" data-name="Group 7728">
        <path id="Path_336" data-name="Path 336" d="M29.2,28H6.8A4.657,4.657,0,0,1,2,23.5V8.5A4.657,4.657,0,0,1,6.8,4H29.2A4.657,4.657,0,0,1,34,8.5v15A4.657,4.657,0,0,1,29.2,28Z" transform="translate(-2 -4)" fill="#22a99b" opacity="0.35"/>
        <path id="Path_337" data-name="Path 337" d="M18.8,14.714H17.2A3.144,3.144,0,0,1,14,11.629V10.086A3.144,3.144,0,0,1,17.2,7h1.6A3.144,3.144,0,0,1,22,10.086v1.543A3.144,3.144,0,0,1,18.8,14.714Z" transform="translate(5.555 -2.714)" fill="#22a99b"/>
        <path id="Path_338" data-name="Path 338" d="M13.148,10.429H6.63A1.674,1.674,0,0,1,5,8.714H5A1.674,1.674,0,0,1,6.63,7h6.519a1.674,1.674,0,0,1,1.63,1.714h0A1.674,1.674,0,0,1,13.148,10.429Z" transform="translate(-0.555 -2.714)" fill="#22a99b"/>
        <path id="Path_339" data-name="Path 339" d="M13.148,14.429H6.63A1.674,1.674,0,0,1,5,12.714H5A1.674,1.674,0,0,1,6.63,11h6.519a1.674,1.674,0,0,1,1.63,1.714h0A1.674,1.674,0,0,1,13.148,14.429Z" transform="translate(-0.555 -0.714)" fill="#22a99b"/>
        <path id="Path_340" data-name="Path 340" d="M9.667,18.429H6.556A1.641,1.641,0,0,1,5,16.714H5A1.641,1.641,0,0,1,6.556,15H9.667a1.641,1.641,0,0,1,1.556,1.714h0A1.641,1.641,0,0,1,9.667,18.429Z" transform="translate(-0.555 1.286)" fill="#22a99b"/>
      </g>
    </g>
  </g>
</svg>
