<svg xmlns="http://www.w3.org/2000/svg" width="32" height="26" viewBox="0 0 32 26">
  <g id="broken_heart" transform="translate(-299 -572)">
    <g id="icons8_broken_heart_1" transform="translate(298 568)">
      <path id="Path_362" data-name="Path 362" d="M3.578,19.258c1.494,1.517,10.532,9.154,11.159,9.79h0a3.168,3.168,0,0,0,4.526,0h0c.628-.637,9.667-8.275,11.159-9.79a9.036,9.036,0,0,0,0-12.64,8.7,8.7,0,0,0-12.445,0A8.927,8.927,0,0,0,17,7.834a8.927,8.927,0,0,0-.977-1.216,8.7,8.7,0,0,0-12.445,0A9.036,9.036,0,0,0,3.578,19.258Z" transform="translate(0 0)" fill="#22a99b" opacity="0.35"/>
      <ellipse id="Ellipse_14" data-name="Ellipse 14" cx="1.455" cy="1.477" rx="1.455" ry="1.477" transform="translate(15.545 17.327)" fill="#22a99b"/>
      <ellipse id="Ellipse_15" data-name="Ellipse 15" cx="1.455" cy="1.477" rx="1.455" ry="1.477" transform="translate(19.909 9.909)" fill="#22a99b"/>
      <ellipse id="Ellipse_16" data-name="Ellipse 16" cx="1.455" cy="1.477" rx="1.455" ry="1.477" transform="translate(12.636 11.387)" fill="#22a99b"/>
      <path id="Path_363" data-name="Path 363" d="M19.182,11.229l-.2.739v.015l-.044.074L14.6,19.428l-.058.089-2.633-.872V14.184H10.455l-1.105-.532H9.335v-.015L9,12.706V4.33a8.561,8.561,0,0,1,3.389,2.127,10.729,10.729,0,0,1,.975,1.211,10.73,10.73,0,0,1,.975-1.211A8.561,8.561,0,0,1,17.727,4.33L16.491,9.752h1.236Z" transform="translate(3.636 0.158)" fill="#22a99b"/>
    </g>
  </g>
</svg>
