<svg xmlns="http://www.w3.org/2000/svg" width="32" height="32" viewBox="0 0 32 32">
  <g id="cake" transform="translate(-2 -2)">
    <path id="Path_347" data-name="Path 347" d="M9.68,6.695C10.147,7.162,13.307,9.8,13.5,10l.371.165L14.243,10c.2-.2,3.36-2.838,3.827-3.306A2.75,2.75,0,0,0,14.182,2.8a2.7,2.7,0,0,0-.306.374,2.793,2.793,0,0,0-.306-.374A2.751,2.751,0,0,0,9.68,6.695Z" transform="translate(4.125 0)" fill="#22a99b" opacity="0.35"/>
    <path id="Path_348" data-name="Path 348" d="M2,16v6.4a3.2,3.2,0,0,0,3.2,3.2H30.8A3.2,3.2,0,0,0,34,22.4V16Z" transform="translate(0 8.4)" fill="#22a99b" opacity="0.35"/>
    <path id="Path_349" data-name="Path 349" d="M34,17.2v2.72a10.316,10.316,0,0,1-3.2.48,9.385,9.385,0,0,1-6.4-2.272A9.385,9.385,0,0,1,18,20.4a9.385,9.385,0,0,1-6.4-2.272A9.385,9.385,0,0,1,5.2,20.4,10.316,10.316,0,0,1,2,19.92V17.2A3.209,3.209,0,0,1,5.2,14H30.8A3.209,3.209,0,0,1,34,17.2Z" transform="translate(0 7.2)" fill="#22a99b"/>
    <path id="Path_350" data-name="Path 350" d="M5,9v8H27.4V9Z" transform="translate(1.8 4.2)" fill="#22a99b" opacity="0.35"/>
    <path id="Path_351" data-name="Path 351" d="M27.4,10.2v3.072a8.773,8.773,0,0,1-4.8-2.144A9.385,9.385,0,0,1,16.2,13.4a9.385,9.385,0,0,1-6.4-2.272A8.773,8.773,0,0,1,5,13.272V10.2A3.209,3.209,0,0,1,8.2,7h16A3.209,3.209,0,0,1,27.4,10.2Z" transform="translate(1.8 3)" fill="#22a99b"/>
  </g>
</svg>
