<svg xmlns="http://www.w3.org/2000/svg" width="32" height="28" viewBox="0 0 32 28">
  <g id="handheart" transform="translate(-301 -508)">
    <g id="icons8_hand_holding_heart" transform="translate(300 505)">
      <path id="Path_376" data-name="Path 376" d="M12.568,10.613c.763.756,5.391,4.568,5.713,4.886h0a1.656,1.656,0,0,0,2.319,0h0c.322-.318,4.949-4.13,5.713-4.886a4.429,4.429,0,0,0,0-6.307,4.537,4.537,0,0,0-6.369,0,4.47,4.47,0,0,0-.5.606,4.469,4.469,0,0,0-.5-.606,4.537,4.537,0,0,0-6.369,0A4.424,4.424,0,0,0,12.568,10.613Z" transform="translate(5.369)" fill="#22a99b"/>
      <path id="Path_377" data-name="Path 377" d="M29.851,20.293a2.545,2.545,0,0,0-3.291-1.56L21.825,20.4a4.2,4.2,0,0,1-1.769.223h0a8.091,8.091,0,0,1-3.727-1.3l-2.085-1.371a1.281,1.281,0,0,1,.594-2.441l2.295.014a3.619,3.619,0,0,0,3.79-3.1A1.29,1.29,0,0,0,19.651,11H8.619a10.508,10.508,0,0,0-2.38.228l-3.511.822A2.222,2.222,0,0,0,1,14.211v8.75a1.377,1.377,0,0,0,1.807,1.3l2.241-.726a6.62,6.62,0,0,1,4.11.012l9.356,3.088a5.978,5.978,0,0,0,4.516-.318l5.548-2.981A2.5,2.5,0,0,0,29.851,20.293Z" transform="translate(0 4.068)" fill="#22a99b" opacity="0.35"/>
    </g>
  </g>
</svg>
