<svg xmlns="http://www.w3.org/2000/svg" width="32" height="28" viewBox="0 0 32 28">
  <g id="news" transform="translate(-292 -253)">
    <g id="Group_7729" data-name="Group 7729" transform="translate(8 -10)">
      <g id="icons8_news_2" transform="translate(284 263)">
        <path id="Path_344" data-name="Path 344" d="M21.667,7H19V25.375C19,27.032,19.844,28,21.808,28h.983c1.964,0,2.431-1.342,2.431-3V10A3.312,3.312,0,0,0,21.667,7Z" transform="translate(6.778 0)" fill="#22a99b"/>
        <path id="Path_341" data-name="Path 341" d="M27.778,27.5V7.375C27.778,4.8,25.162,3,22.543,3H6.741A4.7,4.7,0,0,0,2,7.667V26.333A4.7,4.7,0,0,0,6.741,31h23.7C28.7,31,27.778,29.219,27.778,27.5Z" transform="translate(-2 -3)" fill="#22a99b" opacity="0.35"/>
        <path id="Path_342" data-name="Path 342" d="M19.4,15.5H6.6A1.681,1.681,0,0,1,5,13.75H5A1.681,1.681,0,0,1,6.6,12H19.4A1.681,1.681,0,0,1,21,13.75h0A1.681,1.681,0,0,1,19.4,15.5Z" transform="translate(-0.555 2)" fill="#22a99b"/>
        <path id="Path_343" data-name="Path 343" d="M19.4,19.5H6.6A1.681,1.681,0,0,1,5,17.75H5A1.681,1.681,0,0,1,6.6,16H19.4A1.681,1.681,0,0,1,21,17.75h0A1.681,1.681,0,0,1,19.4,19.5Z" transform="translate(-0.555 4.125)" fill="#22a99b"/>
        <path id="Path_345" data-name="Path 345" d="M18.6,7H7.4A2.3,2.3,0,0,0,5,9.187a2.3,2.3,0,0,0,2.4,2.187H18.6A2.3,2.3,0,0,0,21,9.187,2.3,2.3,0,0,0,18.6,7Z" transform="translate(-0.555 -0.875)" fill="#22a99b"/>
      </g>
    </g>
  </g>
</svg>
