<svg xmlns="http://www.w3.org/2000/svg" width="32" height="32" viewBox="0 0 32 32">
  <g id="sad_emojie" transform="translate(-2 -2)">
    <circle id="Ellipse_10" data-name="Ellipse 10" cx="16" cy="16" r="16" transform="translate(2 2)" fill="#22a99b" opacity="0.35"/>
    <circle id="Ellipse_11" data-name="Ellipse 11" cx="2.4" cy="2.4" r="2.4" transform="translate(22.002 14.8)" fill="#22a99b"/>
    <circle id="Ellipse_12" data-name="Ellipse 12" cx="2.4" cy="2.4" r="2.4" transform="translate(10 14.8)" fill="#22a99b"/>
    <path id="Path_346" data-name="Path 346" d="M14.4,15a10.053,10.053,0,0,1,5.8,1.949,1.6,1.6,0,0,1-1.987,2.509A6.859,6.859,0,0,0,14.4,18.2a6.869,6.869,0,0,0-3.811,1.258A1.6,1.6,0,0,1,8.6,16.949,10.059,10.059,0,0,1,14.4,15Z" transform="translate(4.401 7.8)" fill="#22a99b"/>
  </g>
</svg>
