<svg xmlns="http://www.w3.org/2000/svg" width="28" height="32" viewBox="0 0 28 32">
  <g id="active" transform="translate(-300 -441)">
    <g id="icons8_yoga" transform="translate(297 440)">
      <path id="Path_352" data-name="Path 352" d="M29.444,10.048H4.556A1.524,1.524,0,1,1,4.556,7H29.444a1.524,1.524,0,1,1,0,3.048Z" transform="translate(0 3.143)" fill="#22a99b"/>
      <path id="Path_353" data-name="Path 353" d="M10.556,29.857A1.539,1.539,0,0,1,9,28.333V8.524a1.556,1.556,0,0,1,3.111,0v19.81A1.539,1.539,0,0,1,10.556,29.857Z" transform="translate(3.333 3.143)" fill="#22a99b"/>
      <path id="Path_354" data-name="Path 354" d="M4,9.524,16.4,8,28.889,9.524l-7.778.762v4.568l2.817,4.823-7.061,4.1,3.114-3.36-2.1-2.1a.847.847,0,0,0-1.433.439l-1.56,9.059-1.556-9.143H11.778V10.286Z" transform="translate(0.556 3.667)" fill="#22a99b"/>
      <ellipse id="Ellipse_13" data-name="Ellipse 13" cx="3.889" cy="3.81" rx="3.889" ry="3.81" transform="translate(13.889 1)" fill="#22a99b" opacity="0.35"/>
      <path id="Path_355" data-name="Path 355" d="M13.557,24.19a1.562,1.562,0,0,1-1.218-.574,1.5,1.5,0,0,1,.247-2.141l3.85-3-2.643-4.139a1.506,1.506,0,0,1,.493-2.1,1.577,1.577,0,0,1,2.144.483l3.01,4.712a2.26,2.26,0,0,1-.529,3.011l-4.385,3.421A1.584,1.584,0,0,1,13.557,24.19ZM16.8,19.042h0Zm.171-.99Z" transform="translate(5 5.763)" fill="#22a99b"/>
    </g>
  </g>
</svg>
