<svg xmlns="http://www.w3.org/2000/svg" width="48" height="48" viewBox="0 0 48 48">
  <g id="Group_8019" data-name="Group 8019" transform="translate(-128 -472)">
    <rect id="ins_1" data-name="ins 1" width="48" height="48" rx="16" transform="translate(128 472)" fill="#f47321" opacity="0.1"/>
    <g id="icons8_sign_language" transform="translate(140 483)">
      <path id="Path_47238" data-name="Path 47238" d="M11.746,12.65A2.159,2.159,0,0,0,8.858,12.5c-.549.318-.948.521-.893.495C6.84,12.992,5.9,12.663,5.9,11.545A2.055,2.055,0,0,1,7.963,9.5a1.49,1.49,0,0,1,1.042.428l1.247,1.218a1.039,1.039,0,0,0,1.519-.063,1.064,1.064,0,0,0-.112-1.435L10.047,8.069a2.122,2.122,0,0,0-1.5-.615H8.311l.68-.9,1.16-.574a1.018,1.018,0,0,0,.462-1.372,1.04,1.04,0,0,0-1.386-.457l-1.378.682a1.054,1.054,0,0,0-.365.3L6.095,6.97,7.858,3.48A1.018,1.018,0,0,0,7.4,2.108a1.039,1.039,0,0,0-1.387.457L4.21,6.127l.3-1.948a1.024,1.024,0,0,0-.876-1.157,1.037,1.037,0,0,0-1.169.868l-.66,4.259L.39,9.041l.173,6.877h.458L1,16H7.833a3,3,0,0,0,2.027-.789l1.956-1.793a.49.49,0,0,0,0-.7Z" fill="#f47321" opacity="0.35"/>
      <path id="Path_47239" data-name="Path 47239" d="M1,17H1a1,1,0,0,1-1-1V9A1,1,0,0,1,1,8H1A1,1,0,0,1,2,9v7A1,1,0,0,1,1,17Z" transform="translate(0 0.501)" fill="#f47321"/>
      <path id="Path_47240" data-name="Path 47240" d="M23.61,15.959l-.173-6.877h-.458L23,9H16.167a3,3,0,0,0-2.027.789l-1.956,1.793a.49.49,0,0,0,0,.7l.07.07a2.159,2.159,0,0,0,2.888.147c.549-.318.948-.521.893-.495,1.126.007,2.065.335,2.065,1.453A2.055,2.055,0,0,1,16.037,15.5a1.49,1.49,0,0,1-1.042-.428l-1.247-1.218a1.039,1.039,0,0,0-1.519.063,1.064,1.064,0,0,0,.112,1.435l1.612,1.579a2.13,2.13,0,0,0,1.5.614h.239l-.68.9-1.16.574a1.018,1.018,0,0,0-.462,1.372,1.04,1.04,0,0,0,1.386.457l1.378-.682a1.043,1.043,0,0,0,.365-.3l1.389-1.834-1.763,3.49a1.018,1.018,0,0,0,.462,1.372,1.039,1.039,0,0,0,1.386-.457l1.8-3.561-.3,1.948a1.024,1.024,0,0,0,.877,1.157,1.037,1.037,0,0,0,1.169-.868l.66-4.259Z" transform="translate(0 1.001)" fill="#f47321" opacity="0.35"/>
      <path id="Path_47241" data-name="Path 47241" d="M23,8h0a1,1,0,0,1,1,1v7a1,1,0,0,1-1,1h0a1,1,0,0,1-1-1V9A1,1,0,0,1,23,8Z" transform="translate(0 0.501)" fill="#f47321"/>
    </g>
  </g>
</svg>
