<svg xmlns="http://www.w3.org/2000/svg" width="32" height="30" viewBox="0 0 32 30">
  <g id="sell_now" transform="translate(-64 -142)">
    <g id="icons8_new_store" transform="translate(62 139)">
      <path id="Path_47322" data-name="Path 47322" d="M21.273,14a7.144,7.144,0,1,0,7.273,7.143A7.211,7.211,0,0,0,21.273,14Zm3.636,8.571H22.727v2.143a1.455,1.455,0,0,1-2.909,0V22.571H17.636a1.429,1.429,0,1,1,0-2.857h2.182V17.571a1.455,1.455,0,0,1,2.909,0v2.143h2.182a1.429,1.429,0,1,1,0,2.857Z" transform="translate(5.454 4.714)" fill="#22a99b"/>
      <path id="Path_47323" data-name="Path 47323" d="M29.181,19.221V7H3V22.714A4.325,4.325,0,0,0,7.364,27h13.9A5.82,5.82,0,0,0,32.09,24.143,5.671,5.671,0,0,0,29.181,19.221Z" transform="translate(0.455 1.714)" fill="#22a99b" opacity="0.35"/>
      <path id="Path_47324" data-name="Path 47324" d="M10.364,18.714H7.455A1.442,1.442,0,0,1,6,17.286V14.429A1.442,1.442,0,0,1,7.455,13h2.909a1.442,1.442,0,0,1,1.455,1.429v2.857A1.442,1.442,0,0,1,10.364,18.714Z" transform="translate(1.818 4.286)" fill="#22a99b"/>
      <path id="Path_47325" data-name="Path 47325" d="M30.938,10.933l-1.3-2.556V7.286A4.325,4.325,0,0,0,25.272,3H7.818A4.325,4.325,0,0,0,3.455,7.286V8.377l-1.3,2.556a1.41,1.41,0,0,0,.333,1.7,7.585,7.585,0,0,0,4.6,1.791,7.219,7.219,0,0,0,3.8-1.2,14.928,14.928,0,0,0,5.655,1.2,14.928,14.928,0,0,0,5.655-1.2,7.219,7.219,0,0,0,3.8,1.2,7.585,7.585,0,0,0,4.6-1.791A1.41,1.41,0,0,0,30.938,10.933Z" transform="translate(0 0)" fill="#22a99b"/>
      <path id="Path_47326" data-name="Path 47326" d="M16.964,13h-3.51A1.442,1.442,0,0,0,12,14.429v7.143A9.961,9.961,0,0,1,16.964,13Z" transform="translate(4.545 4.286)" fill="#22a99b"/>
    </g>
  </g>
</svg>
