<svg xmlns="http://www.w3.org/2000/svg" width="18" height="20" viewBox="0 0 18 20">
  <g id="settings" transform="translate(-4764 3537)">
    <g id="icons8_settings" transform="translate(4761.436 -3539)">
      <path id="Path_47224" data-name="Path 47224" d="M15.379,18.928a2.265,2.265,0,0,1,2.036-.164,1.309,1.309,0,0,0,1.518-.43,10.094,10.094,0,0,0,1.546-2.805,1.518,1.518,0,0,0-.445-1.638,2.551,2.551,0,0,1,0-3.784,1.516,1.516,0,0,0,.445-1.638,10.084,10.084,0,0,0-1.546-2.805,1.309,1.309,0,0,0-1.518-.43,2.257,2.257,0,0,1-2.035-.162A2.477,2.477,0,0,1,14.225,3.3a1.368,1.368,0,0,0-1.09-1.158,8.947,8.947,0,0,0-3.142,0A1.369,1.369,0,0,0,8.9,3.3,2.477,2.477,0,0,1,7.749,5.072a2.262,2.262,0,0,1-2.036.163,1.309,1.309,0,0,0-1.518.43A10.091,10.091,0,0,0,2.649,8.47a1.514,1.514,0,0,0,.445,1.637,2.554,2.554,0,0,1,0,3.786,1.516,1.516,0,0,0-.445,1.638A10.084,10.084,0,0,0,4.2,18.336a1.309,1.309,0,0,0,1.518.43,2.257,2.257,0,0,1,2.035.162A2.477,2.477,0,0,1,8.9,20.7a1.368,1.368,0,0,0,1.09,1.158,8.947,8.947,0,0,0,3.142,0,1.366,1.366,0,0,0,1.09-1.158A2.477,2.477,0,0,1,15.379,18.928Z" fill="#f47321" opacity="0.35"/>
      <path id="Path_47225" data-name="Path 47225" d="M12,8a4,4,0,1,0,4,4A4,4,0,0,0,12,8Z" transform="translate(-0.436)" fill="#f47321"/>
    </g>
  </g>
</svg>
