<svg xmlns="http://www.w3.org/2000/svg" width="24" height="24" viewBox="0 0 24 24">
  <g id="share_oranges" transform="translate(-55 -554)">
    <rect id="Rectangle_11179" data-name="Rectangle 11179" width="24" height="24" transform="translate(55 554)" fill="#f47321" opacity="0"/>
    <path id="icons8_share" d="M14.667,2a2.367,2.367,0,0,0-2.333,2.4,2.466,2.466,0,0,0,.043.448L6.842,8.169A2.3,2.3,0,0,0,5.333,7.6a2.4,2.4,0,0,0,0,4.8,2.3,2.3,0,0,0,1.505-.57l5.537,3.322a2.466,2.466,0,0,0-.043.448,2.334,2.334,0,1,0,2.333-2.4,2.3,2.3,0,0,0-1.507.57L7.624,10.448a2.385,2.385,0,0,0,0-.9l5.534-3.32a2.3,2.3,0,0,0,1.509.569A2.367,2.367,0,0,0,17,4.4,2.367,2.367,0,0,0,14.667,2Z" transform="translate(57 556)" fill="#f47321"/>
  </g>
</svg>
