<svg xmlns="http://www.w3.org/2000/svg" width="16" height="16" viewBox="0 0 16 16">
  <g id="shares_green" transform="translate(-58 -557)">
    <rect id="Rectangle_11179" data-name="Rectangle 11179" width="16" height="16" transform="translate(58 557)" fill="#22a99b" opacity="0"/>
    <path id="icons8_share" d="M13,2a2.029,2.029,0,0,0-2,2.057,2.114,2.114,0,0,0,.036.384L6.293,7.288A1.967,1.967,0,0,0,5,6.8a2.058,2.058,0,0,0,0,4.114,1.967,1.967,0,0,0,1.29-.489l4.746,2.847a2.114,2.114,0,0,0-.036.384A2,2,0,1,0,13,11.6a1.967,1.967,0,0,0-1.292.489L6.964,9.241a2.044,2.044,0,0,0,0-.769l4.743-2.846A1.967,1.967,0,0,0,13,6.114a2.029,2.029,0,0,0,2-2.057A2.029,2.029,0,0,0,13,2Z" transform="translate(57 556)" fill="#22a99b"/>
  </g>
</svg>
