<svg xmlns="http://www.w3.org/2000/svg" width="24" height="24" viewBox="0 0 24 24">
  <g id="Group_7670" data-name="Group 7670" transform="translate(-1938 -107)">
    <rect id="Rectangle_11183" data-name="Rectangle 11183" width="24" height="24" transform="translate(1938 107)" fill="#f47321" opacity="0"/>
    <path id="icons8_happy" d="M12,2A10,10,0,1,0,22,12,10,10,0,0,0,12,2Zm0,2a8,8,0,1,1-8,8A8,8,0,0,1,12,4ZM8.5,8A1.5,1.5,0,1,0,10,9.5,1.5,1.5,0,0,0,8.5,8Zm7,0A1.5,1.5,0,1,0,17,9.5,1.5,1.5,0,0,0,15.5,8ZM6.891,14a5.479,5.479,0,0,0,10.219,0Z" transform="translate(1938 107)" fill="#f47321"/>
  </g>
</svg>
