<svg xmlns="http://www.w3.org/2000/svg" width="16" height="16" viewBox="0 0 16 16">
  <g id="views_green" transform="translate(-147 -556)">
    <rect id="Rectangle_11182" data-name="Rectangle 11182" width="16" height="16" transform="translate(147 556)" fill="#22a99b" opacity="0"/>
    <path id="icons8_eye" d="M8.714,4C3.1,4,1,10,1,10s2.1,6,7.714,6,7.714-6,7.714-6S14.325,4,8.714,4Zm0,1.5c3.7,0,5.572,3.2,6.177,4.5-.607,1.288-2.492,4.5-6.177,4.5S3.143,11.3,2.537,10C3.144,8.715,5.029,5.5,8.714,5.5Zm0,1.5a2.908,2.908,0,0,0-2.805,3,2.908,2.908,0,0,0,2.805,3,2.908,2.908,0,0,0,2.805-3A2.908,2.908,0,0,0,8.714,7Zm0,1.5a1.5,1.5,0,0,1,0,3,1.5,1.5,0,0,1,0-3Z" transform="translate(146 554)" fill="#22a99b"/>
  </g>
</svg>
