<svg xmlns="http://www.w3.org/2000/svg" width="20" height="20" viewBox="0 0 20 20">
  <g id="village" transform="translate(-4355 3656)">
    <g id="icons8_farm_2" transform="translate(4353 -3658)">
      <path id="Path_47213" data-name="Path 47213" d="M19.934,8.219c-.317.01-.624.024-.934.038V5H13V8.791a57.288,57.288,0,0,0-9.586,2.093A2.108,2.108,0,0,0,2,12.917v5.9A3.1,3.1,0,0,0,5,22H19a3.1,3.1,0,0,0,3-3.187V10.346A2.069,2.069,0,0,0,19.934,8.219Z" fill="#f47321" opacity="0.35"/>
      <path id="Path_47214" data-name="Path 47214" d="M2,18a2.978,2.978,0,0,0,.586,1.767A36.468,36.468,0,0,1,22,13.042V11.02A38.014,38.014,0,0,0,2,17.7Z" transform="translate(0 1)" fill="#f47321"/>
      <path id="Path_47215" data-name="Path 47215" d="M22,17.031v-2A23.559,23.559,0,0,0,7.787,21H11.1A20.751,20.751,0,0,1,22,17.031Z" transform="translate(0 1)" fill="#f47321"/>
      <path id="Path_47216" data-name="Path 47216" d="M6,9.844V7H4v3.368C4.559,10.209,5.226,10.031,6,9.844Z" transform="translate(0 0.32)" fill="#f47321"/>
      <path id="Path_47217" data-name="Path 47217" d="M8,6A3,3,0,0,1,2,6C2,4.343,3.343,2,5,2S8,4.343,8,6Z" fill="#f47321"/>
      <path id="Path_47218" data-name="Path 47218" d="M19.9,4.97l-.641-1.282a.962.962,0,0,0-.443-.437L16.421,2.1a.971.971,0,0,0-.842,0L13.185,3.25a.962.962,0,0,0-.443.437L12.1,4.97a.967.967,0,0,0-.1.43V8.7c.639-.091,1.31-.174,2-.252V7a1,1,0,0,1,1-1h2a1,1,0,0,1,1,1V8.116c.653-.036,1.317-.067,2-.086V5.4A.967.967,0,0,0,19.9,4.97Z" fill="#f47321"/>
    </g>
  </g>
</svg>
